<?xml version="1.0" encoding="iso-8859-1"?>
<!-- Uploaded to: SVG Repo, www.svgrepo.com, Generator: SVG Repo Mixer Tools -->
<svg fill="#000000" version="1.1" id="Layer_1" xmlns="http://www.w3.org/2000/svg" xmlns:xlink="http://www.w3.org/1999/xlink" 
	 viewBox="0 0 496 496" xml:space="preserve">
<g>
	<g>
		<g>
			<path d="M248,128v16c4.416,0,8,3.584,8,8h16C272,138.768,261.232,128,248,128z"/>
			
				<rect x="111.988" y="149.115" transform="matrix(-0.1641 -0.9864 0.9864 -0.1641 -23.4143 310.8281)" width="15.999" height="32.439"/>
			<path d="M473.688,57.488l-9.784-19.56C452.208,14.528,428.696,0,402.536,0c-19.088,0-37.464,8.048-50.416,22.072l-75.56,81.856
				C268.192,98.928,258.44,96,248,96s-20.192,2.928-28.568,7.928l-75.56-81.856C130.92,8.048,112.544,0,93.464,0
				c-26.16,0-49.672,14.528-61.368,37.928l-9.784,19.56C7.72,86.688,0,119.368,0,152s7.72,65.312,22.312,94.504l9.784,19.56
				c6.096,12.192,15.44,21.896,26.648,28.472l-6.272,10.456C44.312,318.584,40,334.16,40,350.024c0,23.76,9.848,46.816,27.024,63.24
				l71.176,68.072l0.056-0.056c9.96,9.112,23.168,14.72,37.696,14.72h4.168c14.944,0,29-5.824,39.568-16.392L235.312,464
				L153.6,382.288l61.048-177.032l4.784-5.184c8.376,5,18.128,7.928,28.568,7.928s20.192-2.928,28.568-7.92l4.784,5.184
				L342.4,382.288L260.688,464l15.608,15.608C286.864,490.176,300.92,496,315.864,496h4.168c14.528,0,27.744-5.608,37.704-14.72
				l0.056,0.056l71.184-68.072c17.176-16.432,27.024-39.48,27.024-63.24c0-15.864-4.312-31.44-12.472-45.024l-6.28-10.456
				c11.216-6.576,20.56-16.28,26.648-28.472l9.784-19.56c14.6-29.2,22.32-61.88,22.32-94.512S488.28,86.688,473.688,57.488z
				 M363.872,32.928C373.816,22.176,387.896,16,402.536,16c12.392,0,23.992,4.272,33.176,11.76l3.448,4.232
				C444.856,39,448,47.816,448,56.832c0,18.856-13.448,35.112-31.976,38.632l-122.96,23.424c-1.256-1.704-2.6-3.328-4.032-4.872
				L363.872,32.928z M212.688,464l-4.296,4.296c-7.44,7.44-17.736,11.704-28.256,11.704h-4.168C153.928,480,136,462.072,136,440.04
				c0-4.456,0.736-8.84,2.176-13.032l9.616-27.896L212.688,464z M123.056,421.792c-2.024,5.88-3.056,12.024-3.056,18.248
				c0,0.616,0.072,1.224,0.096,1.832l-42.008-40.176C64.048,388.272,56,369.44,56,350.024c0-12.96,3.52-25.688,10.184-36.792
				l7.336-12.216c6.36,1.92,13.048,2.984,19.944,2.984c2.552,0,5.08-0.168,7.592-0.448l-12.64,37.92l15.168,5.064l15.92-47.752
				c9.168-3.768,17.536-9.448,24.368-16.848l43.752-47.4L123.056,421.792z M132.128,271.08C122.184,281.832,108.104,288,93.464,288
				c-20.056,0-38.088-11.144-47.056-29.088l-9.784-19.56C23.136,212.368,16,182.168,16,152c0-28.024,6.232-56.04,17.92-81.512
				c5.224,20.376,21.632,36.624,43.056,40.704l118.16,22.512c-1.272,3.664-2.184,7.488-2.672,11.448l-41.776,6.96l2.624,15.784
				l39.528-6.584c1.848,10.976,6.88,20.856,14.136,28.68L132.128,271.08z M202.944,118.888L79.976,95.464
				C61.448,91.944,48,75.696,48,56.832c0-9.016,3.144-17.832,8.832-24.84l3.448-4.232C69.464,20.272,81.072,16,93.464,16
				c14.64,0,28.72,6.176,38.664,16.928l74.848,81.088C205.544,115.568,204.2,117.192,202.944,118.888z M248,192
				c-22.056,0-40-17.944-40-40c0-22.056,17.944-40,40-40c22.056,0,40,17.944,40,40C288,174.056,270.056,192,248,192z M320.04,480
				h-4.176c-10.52,0-20.816-4.264-28.256-11.704L283.312,464l64.888-64.888l9.616,27.896c1.448,4.192,2.184,8.576,2.184,13.032
				C360,462.072,342.072,480,320.04,480z M440,350.024c0,19.416-8.048,38.248-22.088,51.68l-42.008,40.176
				c0.024-0.616,0.096-1.224,0.096-1.84c0-6.224-1.032-12.368-3.056-18.248l-64.576-187.264l43.752,47.4
				c5.224,5.656,11.36,10.288,18.04,13.864l14.248,42.736l15.168-5.064l-10.272-30.808c4.344,0.864,8.768,1.344,13.232,1.344
				c6.896,0,13.584-1.064,19.944-2.984l7.336,12.216C436.48,324.336,440,337.064,440,350.024z M459.376,239.352l-9.784,19.56
				c-8.968,17.944-27,29.088-47.056,29.088c-14.64,0-28.728-6.168-38.664-16.928l-74.848-81.088
				c7.352-7.936,12.416-17.976,14.2-29.128l63.888,7.096l1.768-15.904l-65.4-7.264c-0.496-3.832-1.384-7.536-2.616-11.088
				l118.152-22.504c21.432-4.08,37.84-20.328,43.064-40.704C473.768,95.96,480,123.976,480,152
				C480,182.168,472.864,212.368,459.376,239.352z"/>
		</g>
	</g>
</g>
</svg>