<?xml version="1.0" encoding="UTF-8"?>
<svg version="1.1" xmlns="http://www.w3.org/2000/svg" width="628" height="483">
<path d="M0 0 C10.09044343 2.97771753 19.27230037 15.09360386 26.5324707 22.42553711 C28.45264331 24.36407403 30.38080605 26.29438055 32.31030273 28.22363281 C38.31743466 34.24819411 44.18417918 40.3108455 49.69702148 46.79589844 C51.2756594 48.50857165 52.85852107 50.21736868 54.44702148 51.92089844 C85.69702148 86.24854995 85.69702148 86.24854995 85.69702148 96.79589844 C86.45499023 96.57933594 87.21295898 96.36277344 87.99389648 96.13964844 C105.75716631 91.79930196 126.0690968 91.75934853 143.69702148 96.79589844 C143.96514648 95.9103125 144.23327148 95.02472656 144.50952148 94.11230469 C151.18203919 75.47754308 169.54431839 58.22259601 182.69702148 43.79589844 C183.89572876 42.47102417 183.89572876 42.47102417 185.11865234 41.11938477 C191.33616201 34.27971635 197.69499369 27.61157683 204.23144531 21.07617188 C205.76780316 19.53760485 207.29592429 17.99114879 208.82397461 16.44433594 C222.56512269 2.6148053 222.56512269 2.6148053 227.69702148 -0.20410156 C233.21913752 0.21535758 235.65164013 3.11119051 239.31811523 6.99511719 C255.95453358 26.58183632 264.83161423 52.74389451 272.69702148 76.79589844 C273.30344482 78.64223877 273.30344482 78.64223877 273.92211914 80.52587891 C294.94049656 145.31379852 306.5198223 213.15259009 314.84936523 280.61621094 C314.93646759 281.31910751 315.02356995 282.02200409 315.11331177 282.74620056 C315.69702148 287.55038006 315.69702148 287.55038006 315.69702148 289.79589844 C316.57461624 289.6580896 317.452211 289.52028076 318.35639954 289.3782959 C326.66630998 288.07491751 334.9774355 286.77964207 343.28999043 285.49323273 C347.5625173 284.83175152 351.8345273 284.16725332 356.10546875 283.49560547 C360.23462053 282.84637339 364.36498048 282.20539941 368.49626732 281.56990051 C370.06459556 281.32721279 371.63248297 281.08165672 373.19988441 280.83305359 C395.80176099 277.25356615 395.80176099 277.25356615 400.65327454 279.8380127 C402.83110679 281.57752243 404.44627827 283.29441201 405.69702148 285.79589844 C406.09473475 290.56845767 406.17155578 292.88072516 403.94702148 297.17089844 C400.03778069 301.73167936 395.87371417 302.27484398 390.11450195 303.12451172 C389.35635193 303.24184662 388.5982019 303.35918152 387.81707764 303.48007202 C385.31706977 303.86529147 382.81571428 304.24084899 380.31420898 304.61621094 C378.57585416 304.88184796 376.83758409 305.14804019 375.09939575 305.4147644 C371.46018082 305.97182711 367.82034197 306.52453465 364.17993164 307.07373047 C359.5070251 307.77870185 354.83524512 308.490814 350.16384697 309.20570564 C345.71430812 309.88644563 341.26430415 310.56411855 336.81420898 311.24121094 C335.96191586 311.37105503 335.10962273 311.50089912 334.23150253 311.63467789 C331.82816833 312.0001482 329.42452317 312.3634908 327.02075195 312.72607422 C325.94692764 312.88967438 325.94692764 312.88967438 324.85140991 313.05657959 C319.92707117 313.79589844 319.92707117 313.79589844 317.69702148 313.79589844 C317.69702148 318.08589844 317.69702148 322.37589844 317.69702148 326.79589844 C319.6402832 326.91288086 321.58354492 327.02986328 323.58569336 327.15039062 C332.27117891 327.7741273 340.85757217 328.91450729 349.47827148 330.12402344 C350.2964183 330.2382238 351.11456512 330.35242416 351.95750427 330.47008514 C356.27060853 331.07300492 360.58277102 331.68221796 364.89428711 332.29638672 C369.32792857 332.92650481 373.76449293 333.53289682 378.20209503 334.13438797 C381.63906313 334.60480748 385.07330612 335.09319817 388.50706482 335.58644867 C390.14230032 335.81809853 391.77851563 336.04294328 393.41566467 336.26065826 C395.70078353 336.56615618 397.9808523 336.89714864 400.26147461 337.234375 C402.20334656 337.50631683 402.20334656 337.50631683 404.18444824 337.78375244 C408.54996407 339.04167336 410.46267443 340.6491695 413.69702148 343.79589844 C415.55428764 347.51043075 415.28203238 351.75169269 414.69702148 355.79589844 C412.50679231 358.62014132 410.86684942 360.21098447 407.69702148 361.79589844 C398.48724186 362.71103309 389.2099012 360.90989132 380.13035965 359.5429821 C377.37356449 359.12821665 374.61544188 358.72358393 371.85678101 358.32142639 C365.01565299 357.32211309 358.17699539 356.30631361 351.33837891 355.28997803 C345.53547142 354.42810006 339.73164608 353.57300475 333.92637253 352.72720528 C331.21268747 352.3289805 328.50062642 351.92076198 325.78848267 351.51219177 C324.12607079 351.26893425 322.46358866 351.02615619 320.80102539 350.78393555 C319.67571915 350.61022934 319.67571915 350.61022934 318.52767944 350.43301392 C314.68889351 349.88508687 311.39879313 349.51067028 307.69702148 350.79589844 C306.06963598 352.15123207 306.06963598 352.15123207 304.88452148 353.85839844 C303.80170898 355.31246094 303.80170898 355.31246094 302.69702148 356.79589844 C312.62655429 361.80897871 322.59859542 366.71117334 332.66738892 371.43856812 C334.08930247 372.10620688 335.51064924 372.77505384 336.93148804 373.44497681 C345.12269787 377.30705767 353.33615222 381.10646873 361.61889648 384.76855469 C362.68695778 385.24261749 362.68695778 385.24261749 363.77659607 385.72625732 C367.1650988 387.22952621 370.55787418 388.72090554 373.9609375 390.19091797 C375.1817609 390.72936073 376.40239337 391.26823666 377.62280273 391.80761719 C378.67894775 392.26612061 379.73509277 392.72462402 380.82324219 393.19702148 C384.66759065 395.33589142 387.95890412 397.8400575 389.54467773 402.04199219 C389.96092533 406.28771765 389.94050864 408.31762009 387.94702148 412.23339844 C385.07689152 415.50215756 382.92294866 417.13380599 378.60717773 417.42480469 C370.10217206 417.22965822 362.57236662 412.45273754 355.13452148 408.73339844 C352.59705402 407.49208167 350.05616515 406.25796163 347.51509094 405.02404785 C345.78783955 404.18472557 344.06167692 403.34315911 342.33659363 402.49938965 C333.92627119 398.39148559 325.42116083 394.50778049 316.88452148 390.67089844 C314.19649382 389.46243067 311.5088015 388.25323165 308.82202148 387.04199219 C308.19886047 386.76116791 307.57569946 386.48034363 306.93365479 386.19100952 C303.26058366 384.52778889 299.62394345 382.80540828 296.00952148 381.01855469 C295.20619385 380.62361816 294.40286621 380.22868164 293.57519531 379.82177734 C292.17989714 379.12856 290.79085253 378.42250241 289.41064453 377.69970703 C286.15239263 376.04514561 286.15239263 376.04514561 282.62670898 376.33886719 C280.0977797 378.24836238 277.6024743 380.18237843 275.13452148 382.17089844 C266.76688368 388.74002095 257.80520311 394.31911971 248.69702148 399.79589844 C247.9688623 400.23434082 247.24070312 400.6727832 246.49047852 401.12451172 C208.10054583 423.96164494 163.13163524 438.21808865 118.34741211 438.11157227 C115.59635187 438.10842626 112.84638632 438.13191882 110.09545898 438.15722656 C93.15514463 438.21864423 76.64152827 436.16623497 60.19702148 432.04589844 C59.15497559 431.7884082 58.11292969 431.53091797 57.03930664 431.265625 C19.72391008 421.80762246 -18.19129878 404.79169095 -48.02978516 380.18432617 C-50.47059814 378.17342698 -52.26794952 376.80757477 -55.30297852 375.79589844 C-57.87413343 376.80779926 -60.27776855 377.88775615 -62.74829102 379.10839844 C-63.49821823 379.46878204 -64.24814545 379.82916565 -65.02079773 380.20046997 C-66.64427852 380.98168427 -68.26565851 381.76727595 -69.88516235 382.55670166 C-74.1880782 384.65365209 -78.506199 386.71888734 -82.82250977 388.78808594 C-84.13940041 389.42096024 -84.13940041 389.42096024 -85.4828949 390.06661987 C-95.33514476 394.79182953 -105.28254974 399.3005983 -115.24902344 403.77856445 C-121.59666894 406.63408832 -127.89332355 409.55230606 -134.11523438 412.67529297 C-140.35520426 415.78201663 -146.2097533 418.65432344 -153.30297852 416.79589844 C-156.55053625 415.23977702 -157.7845015 414.06088635 -159.14672852 410.73730469 C-160.26353126 406.79525691 -160.50788415 404.43472189 -159.24047852 400.48339844 C-155.69415688 395.56430714 -151.33336278 393.14528671 -145.86157227 390.72167969 C-145.2335672 390.4404274 -144.60556213 390.15917511 -143.95852661 389.86940002 C-142.5993565 389.26121836 -141.23878945 388.65615087 -139.87698364 388.05389404 C-136.18609224 386.42051551 -132.5066539 384.76170239 -128.82641602 383.10449219 C-127.67064812 382.58486908 -127.67064812 382.58486908 -126.49153137 382.05474854 C-117.56677138 378.03188433 -108.71391511 373.85834603 -99.86547852 369.67089844 C-99.10516327 369.31186432 -98.34484802 368.9528302 -97.56149292 368.58291626 C-89.43009643 364.74238887 -81.31837491 360.87491233 -73.30297852 356.79589844 C-74.94299834 353.9114776 -76.64106897 351.79603501 -79.30297852 349.79589844 C-81.74119587 349.50342273 -81.74119587 349.50342273 -84.43334961 349.92456055 C-85.50204285 350.04781708 -86.57073608 350.17107361 -87.67181396 350.29806519 C-88.87009827 350.46235016 -90.06838257 350.62663513 -91.30297852 350.79589844 C-92.26712048 350.92406889 -92.26712048 350.92406889 -93.25074005 351.05482864 C-97.68147259 351.64590429 -102.10444606 352.28402445 -106.52617264 352.93878365 C-109.0244813 353.3083005 -111.52351258 353.6725274 -114.02279663 354.03538513 C-121.11956561 355.06651169 -128.21513384 356.10572681 -135.30981445 357.15112305 C-139.67349476 357.79373612 -144.03814799 358.42936357 -148.40345383 359.06083488 C-150.05348994 359.30095579 -151.70314332 359.54372354 -153.35237503 359.78930855 C-175.39085001 363.06995466 -175.39085001 363.06995466 -181.30297852 360.48339844 C-183.79178347 358.38346926 -185.19479622 356.74885715 -185.56860352 353.45605469 C-185.56344727 352.59882813 -185.55829102 351.74160156 -185.55297852 350.85839844 C-185.55813477 350.00375 -185.56329102 349.14910156 -185.56860352 348.26855469 C-185.27564683 345.54147257 -184.86515619 344.04976322 -183.30297852 341.79589844 C-179.18115256 338.75508959 -175.08305579 338.01783151 -170.11962891 337.35375977 C-169.3092366 337.23627884 -168.4988443 337.11879791 -167.66389465 336.99775696 C-164.99423052 336.61360718 -162.32262269 336.24553807 -159.65063477 335.87792969 C-157.7887321 335.6140328 -155.92695274 335.34926459 -154.06529236 335.08366394 C-150.16669043 334.52979464 -146.26715107 333.98331246 -142.36669922 333.44262695 C-137.37407915 332.75040239 -132.3834709 332.04480492 -127.39342594 331.33427906 C-123.54973937 330.78763775 -119.70541154 330.2456314 -115.86083794 329.70526695 C-114.02076748 329.44655623 -112.18081667 329.18699299 -110.34099007 328.92655373 C-107.76648161 328.56333026 -105.19125344 328.20574615 -102.61572266 327.84985352 C-101.48166992 327.68860992 -101.48166992 327.68860992 -100.32470703 327.52410889 C-96.22489498 326.96437941 -92.47811555 326.79589844 -88.30297852 326.79589844 C-88.30297852 322.50589844 -88.30297852 318.21589844 -88.30297852 313.79589844 C-91.3097168 313.37630859 -91.3097168 313.37630859 -94.37719727 312.94824219 C-103.08392621 311.72773301 -111.78518017 310.4700587 -120.48547363 309.20458984 C-123.41679737 308.77938851 -126.34863887 308.35787977 -129.28051758 307.93652344 C-134.39042614 307.20011779 -139.49746945 306.4458847 -144.60317993 305.68093872 C-146.60514051 305.38350539 -148.60789655 305.09137604 -150.61141968 304.80465698 C-153.44454067 304.39809026 -156.27415976 303.97229402 -159.10375977 303.54199219 C-160.36731796 303.36706238 -160.36731796 303.36706238 -161.65640259 303.18859863 C-167.4087555 302.28514539 -171.93522451 300.80940354 -175.67797852 296.04589844 C-176.64462943 292.56595515 -176.98848975 289.33205044 -176.30297852 285.79589844 C-174.55540422 282.77499863 -172.47080085 280.37980961 -169.30297852 278.79589844 C-159.95674571 277.94849191 -150.67501567 279.74354442 -141.47875977 281.20214844 C-139.88033518 281.44949336 -138.28179674 281.69610353 -136.68315125 281.9420166 C-132.51134125 282.58573958 -128.3411356 283.23931746 -124.17120361 283.89508057 C-119.90161361 284.56468622 -115.63055623 285.22479337 -111.35961914 285.88574219 C-103.00595485 287.17992569 -94.65396414 288.4845419 -86.30297852 289.79589844 C-86.17924866 288.65846191 -86.0555188 287.52102539 -85.92803955 286.34912109 C-76.82906601 202.95611028 -63.63765383 109.99866635 -26.30297852 33.79589844 C-25.92641113 33.02358887 -25.54984375 32.2512793 -25.16186523 31.45556641 C-20.7270291 22.46286198 -16.09907687 14.25909847 -9.30297852 6.79589844 C-8.68293945 6.07273437 -8.06290039 5.34957031 -7.42407227 4.60449219 C-3.01036326 -0.26679356 -3.01036326 -0.26679356 0 0 Z " fill="#000000" transform="translate(198.302978515625,30.2041015625)"/>
</svg>
